PathFileType	4	(x/y/z)	S08_M20_T04
DataRate	CameraRate	NumFrames	NumMarkers	Units	OrigDataRate	OrigDataStartFrame	OrigNumFrames
240	240	5	51	mm	240	174	463
Frame#	Time	Sternum			R.Acromium			L.Acromium			Top.Head			R.ASIS			L.ASIS			R.PSIS			L.PSIS			R.Great.Tro			L.Great.Tro			R.Iliac.Crest			L.Iliac.Crest			V.Sacral			R.Thigh.Upper.Post			R.Thigh.Lower.Ant			R.Thigh.Lower.Post			R.Thigh.Upper.Ant			R.Knee.Lat			R.Knee.Med			R.Shank.Upper.Post			R.Shank.Lower.Ant			R.Shank.Lower.Post			R.Shank.Upper.Ant			R.Ankle.Lat			R.Ankle.Med			R.Heel.Upper			R.Heel.Med			R.Heel.Lat			R.Toe.Lat			R.Toe.Med			R.Toe.Tip			L.Thigh.Upper.Post			L.Thigh.Lower.Ant			L.Thigh.Lower.Post			L.Thigh.Upper.Ant			L.Knee.Lat			L.Knee.Med			L.Shank.Upper.Post			L.Shank.Lower.Ant			L.Shank.Lower.Post			L.Shank.Upper.Ant			L.Ankle.Lat			L.Ankle.Med			L.Heel.Upper			L.Heel.Med			L.Heel.Lat			L.Toe.Lat			L.Toe.Med			L.Toe.Tip			Cervical.Spine			Back			
		X1	Y1	Z1	X2	Y2	Z2	X3	Y3	Z3	X4	Y4	Z4	X5	Y5	Z5	X6	Y6	Z6	X7	Y7	Z7	X8	Y8	Z8	X9	Y9	Z9	X10	Y10	Z10	X11	Y11	Z11	X12	Y12	Z12	X13	Y13	Z13	X14	Y14	Z14	X15	Y15	Z15	X16	Y16	Z16	X17	Y17	Z17	X18	Y18	Z18	X19	Y19	Z19	X20	Y20	Z20	X21	Y21	Z21	X22	Y22	Z22	X23	Y23	Z23	X24	Y24	Z24	X25	Y25	Z25	X26	Y26	Z26	X27	Y27	Z27	X28	Y28	Z28	X29	Y29	Z29	X30	Y30	Z30	X31	Y31	Z31	X32	Y32	Z32	X33	Y33	Z33	X34	Y34	Z34	X35	Y35	Z35	X36	Y36	Z36	X37	Y37	Z37	X38	Y38	Z38	X39	Y39	Z39	X40	Y40	Z40	X41	Y41	Z41	X42	Y42	Z42	X43	Y43	Z43	X44	Y44	Z44	X45	Y45	Z45	X46	Y46	Z46	X47	Y47	Z47	X48	Y48	Z48	X49	Y49	Z49	X50	Y50	Z50	X51	Y51	Z51	

174	0.72083	-506.33	1191.3	342.2	-628.21	1417.2	525.9	-650.21	1452.8	193.32	-633.21	1742.2	379.4	-508.66	981.24	445.3	-525.19	965.9	214.03	-717.01	999.88	384.88	-717.06	1001.6	292.48	-553.76	880.82	525.28	-639.92	862.34	158.93	-605.15	1047.6	498.19	-619.43	1049.6	189.34	-735.23	960.73	340.39	-489.62	685.86	505.23	-383.42	629.17	457.44	-449.28	608.06	478.55	-419.23	714.2	482.43	-378.55	527.17	449.73	-419.88	521.53	330.43	-420.14	335.17	462.3	-357.43	278.95	431.67	-415.11	258.42	453.1	-361.77	356.11	442.15	-411.91	93.655	412.83	-385.86	114.39	334.39	-459.62	64.442	361.65	-445.13	38.399	334.58	-453.82	39.286	395.74	NaN	NaN	NaN	-260.91	49.672	324.64	-199.07	73.755	371.36	-713.16	672	181.59	-648.77	563.1	189.72	-717.12	581.39	195.12	-644.7	650.06	171.97	-735.52	484.21	206.83	-716.36	471.93	330.3	-899.1	397.87	207.34	-924.88	290.82	218.34	-953.91	349.5	222.55	-862.92	343.34	207.01	-1063.5	212.8	230.87	-1040.3	196.5	314.76	-1113.3	237.64	284.77	-1129.9	207.68	315.95	-1132.8	216.95	252.31	-1043.8	71.733	213.67	-1021.2	61.233	327.72	-973.22	36.75	279.62	-709.29	1476.9	354.92	-745.53	1190	353.6
175	0.725	-500.48	1192.4	342.65	-622.36	1418.3	526.28	-644.38	1453.8	193.74	-627.35	1743.2	380.04	-502.77	982.35	445.9	-519.26	966.82	214.66	-711.15	1000.8	385.28	-711.18	1002.3	292.84	-547.92	881.71	525.91	-633.51	862.64	159.6	-599.34	1048.7	498.63	-613.46	1050.4	189.79	-729.3	961.49	340.81	-484.72	686.29	505.63	-378.84	629.02	457.77	-444.83	608.28	478.85	-414.16	714.22	482.81	-374.59	526.96	449.9	-416.07	521.72	330.62	-417.74	335.33	462.25	-355.48	278.56	431.54	-413.32	258.53	453	-359.18	355.79	442.15	-411.71	93.879	412.81	-385.49	114.38	334.3	-459.52	64.528	361.64	-445.09	38.453	334.57	-453.74	39.4	395.75	NaN	NaN	NaN	-260.8	49.163	324.46	-198.83	73.016	371.12	-704.7	670.93	182.05	-638.93	562.83	189.62	-707.5	580.2	195.28	-635.94	649.93	172.2	-724.53	483.27	206.45	-704.82	470.53	330.01	-888.5	399.11	207.11	-916.25	292.29	217.77	-943.94	351.46	222.3	-853.1	344.09	206.61	-1055.2	216.64	230.25	-1032.2	199.83	314.25	-1103.6	243.35	284.17	-1121.3	214.12	315.49	-1124	223.35	251.8	-1040.1	74.749	213.53	-1017.7	63.633	327.48	-971.01	36.413	279.33	-703.49	1477.8	355.35	-739.62	1190.9	353.97
176	0.72917	-494.69	1193.5	343.07	-616.52	1419.4	526.65	-638.61	1454.9	194.15	-621.51	1744.1	380.68	-496.92	983.44	446.47	-513.41	967.74	215.26	-705.35	1001.6	385.71	-705.37	1003.1	293.24	-542.11	882.59	526.54	-627.17	862.95	160.28	-593.55	1049.7	499.07	-607.59	1051.2	190.25	-723.42	962.26	341.26	-479.95	686.71	505.99	-374.41	628.82	458.07	-440.54	608.47	479.12	-409.2	714.2	483.18	-370.78	526.71	450.05	-412.44	521.88	330.78	-415.49	335.47	462.16	-353.65	278.17	431.4	-411.66	258.63	452.86	-356.74	355.46	442.14	-411.55	94.108	412.79	-385.15	114.36	334.2	-459.44	64.597	361.63	-445.05	38.492	334.56	-453.67	39.502	395.74	NaN	NaN	NaN	-260.7	48.706	324.29	-198.62	72.35	370.89	-696.18	669.9	182.47	-629.02	562.61	189.53	-697.82	579.07	195.41	-627.12	649.85	172.42	-713.44	482.38	206.06	-693.2	469.19	329.72	-877.74	400.37	206.86	-907.22	293.73	217.24	-933.79	353.42	222.04	-843.11	344.88	206.21	-1046.7	220.45	229.63	-1023.9	203.16	313.74	-1093.7	248.96	283.57	-1112.3	220.46	315.05	-1114.9	229.64	251.3	-1036.1	77.853	213.39	-1013.9	66.158	327.24	-968.49	36.168	279.01	-697.71	1478.8	355.77	-733.75	1191.9	354.37
177	0.73333	-488.95	1194.6	343.46	-610.69	1420.5	527.01	-632.88	1455.9	194.54	-615.67	1745.1	381.3	-491.11	984.51	447.02	-507.62	968.66	215.83	-699.6	1002.6	386.18	-699.63	1003.8	293.67	-536.34	883.44	527.16	-620.89	863.28	161	-587.76	1050.8	499.51	-601.81	1051.9	190.71	-717.61	963.04	341.76	-475.29	687.12	506.34	-370.12	628.58	458.35	-436.39	608.64	479.37	-404.36	714.14	483.52	-367.13	526.45	450.18	-408.96	522	330.93	-413.37	335.59	462.04	-351.93	277.77	431.25	-410.12	258.71	452.7	-354.43	355.13	442.12	-411.43	94.343	412.78	-384.85	114.34	334.08	-459.37	64.653	361.61	-445.01	38.518	334.55	-453.61	39.594	395.73	NaN	NaN	NaN	-260.61	48.295	324.13	-198.44	71.747	370.69	-687.61	668.91	182.87	-619.07	562.46	189.43	-688.06	577.99	195.52	-618.25	649.82	172.61	-702.25	481.57	205.65	-681.51	467.94	329.43	-866.83	401.65	206.62	-897.8	295.15	216.75	-923.46	355.4	221.77	-832.95	345.71	205.82	-1038	224.22	229.02	-1015.3	206.47	313.24	-1083.5	254.44	282.98	-1103.1	226.67	314.62	-1105.4	235.79	250.82	-1031.7	81.025	213.27	-1009.6	68.794	326.99	-965.61	36.035	278.64	-691.95	1479.8	356.19	-727.93	1192.9	354.8
178	0.7375	-483.25	1195.7	343.82	-604.87	1421.7	527.35	-627.21	1456.9	194.91	-609.85	1746.1	381.91	-485.34	985.58	447.54	-501.91	969.59	216.37	-693.91	1003.5	386.68	-693.95	1004.5	294.13	-530.61	884.29	527.78	-614.67	863.61	161.72	-581.97	1051.8	499.94	-596.12	1052.7	191.19	-711.86	963.82	342.29	-470.76	687.53	506.66	-365.96	628.3	458.61	-432.37	608.8	479.6	-399.62	714.06	483.84	-363.63	526.16	450.3	-405.62	522.1	331.05	-411.38	335.7	461.89	-350.32	277.38	431.08	-408.67	258.8	452.51	-352.24	354.8	442.1	-411.35	94.582	412.77	-384.57	114.3	333.95	-459.31	64.699	361.58	-444.98	38.533	334.53	-453.56	39.678	395.72	NaN	NaN	NaN	-260.52	47.922	323.98	-198.28	71.197	370.52	-678.98	667.97	183.25	-609.09	562.39	189.34	-678.24	576.99	195.59	-609.34	649.85	172.79	-690.98	480.84	205.24	-669.77	466.79	329.16	-855.79	402.95	206.37	-887.99	296.54	216.29	-912.97	357.38	221.5	-822.64	346.58	205.43	-1029	227.92	228.43	-1006.4	209.75	312.75	-1073.1	259.76	282.39	-1093.5	232.72	314.21	-1095.8	241.77	250.36	-1026.9	84.247	213.16	-1004.9	71.522	326.73	-962.34	36.039	278.24	-686.23	1480.8	356.61	-722.15	1193.9	355.24
